<svg width="14" height="15" viewBox="0 0 14 15" fill="none" xmlns="http://www.w3.org/2000/svg">
<path d="M9.96563 3.79366C9.96563 3.59702 10.0437 3.40844 10.1828 3.2694C10.3218 3.13036 10.5104 3.05225 10.707 3.05225C10.9037 3.05225 11.0923 3.13036 11.2313 3.2694C11.3703 3.40844 11.4485 3.59702 11.4485 3.79366C11.4485 3.99029 11.3703 4.17887 11.2313 4.31792C11.0923 4.45696 10.9037 4.53507 10.707 4.53507C10.5104 4.53507 10.3218 4.45696 10.1828 4.31792C10.0437 4.17887 9.96563 3.99029 9.96563 3.79366Z" fill="black"/>
<path fill-rule="evenodd" clip-rule="evenodd" d="M6.99998 3.979C6.06596 3.979 5.1702 4.35004 4.50975 5.01049C3.8493 5.67094 3.47827 6.5667 3.47827 7.50071C3.47827 8.43473 3.8493 9.33049 4.50975 9.99094C5.1702 10.6514 6.06596 11.0224 6.99998 11.0224C7.93399 11.0224 8.82975 10.6514 9.4902 9.99094C10.1507 9.33049 10.5217 8.43473 10.5217 7.50071C10.5217 6.5667 10.1507 5.67094 9.4902 5.01049C8.82975 4.35004 7.93399 3.979 6.99998 3.979ZM4.59039 7.50071C4.59039 6.86165 4.84425 6.24876 5.29614 5.79688C5.74803 5.34499 6.36091 5.09112 6.99998 5.09112C7.63904 5.09112 8.25193 5.34499 8.70381 5.79688C9.1557 6.24876 9.40957 6.86165 9.40957 7.50071C9.40957 8.13978 9.1557 8.75267 8.70381 9.20455C8.25193 9.65644 7.63904 9.9103 6.99998 9.9103C6.36091 9.9103 5.74803 9.65644 5.29614 9.20455C4.84425 8.75267 4.59039 8.13978 4.59039 7.50071Z" fill="black"/>
<path fill-rule="evenodd" clip-rule="evenodd" d="M10.8983 0.703796C8.30738 0.416443 5.6926 0.416443 3.10164 0.703796C1.60992 0.870614 0.405122 2.04575 0.230149 3.54489C-0.0767163 6.17292 -0.0767163 8.82773 0.230149 11.4558C0.405122 12.9549 1.60918 14.13 3.10164 14.2969C5.69263 14.5836 8.30734 14.5836 10.8983 14.2969C12.3901 14.13 13.5949 12.9549 13.7698 11.4558C14.0767 8.82773 14.0767 6.17292 13.7698 3.54489C13.5949 2.04575 12.3908 0.870614 10.8983 0.703796ZM3.22471 1.8085C5.73387 1.53026 8.2661 1.53026 10.7753 1.8085C11.7613 1.91971 12.5509 2.69745 12.6659 3.67464C12.9633 6.21643 12.9633 8.78422 12.6659 11.326C12.6064 11.8043 12.3875 12.2485 12.0444 12.587C11.7014 12.9254 11.2543 13.1384 10.7753 13.1914C8.2661 13.4697 5.73387 13.4697 3.22471 13.1914C2.74572 13.1384 2.29858 12.9254 1.95553 12.587C1.61248 12.2485 1.39355 11.8043 1.33411 11.326C1.0367 8.78422 1.0367 6.21643 1.33411 3.67464C1.39355 3.19639 1.61248 2.75216 1.95553 2.41368C2.29858 2.0752 2.74572 1.86152 3.22471 1.8085Z" fill="black"/>
</svg>
