<svg width="22" height="22" viewBox="0 0 22 22" fill="none" xmlns="http://www.w3.org/2000/svg">
<path d="M7.29053 11.974V4.22656C7.29053 3.86396 7.43457 3.51621 7.69097 3.25981C7.94736 3.00342 8.29511 2.85938 8.65771 2.85938C9.02032 2.85938 9.36807 3.00342 9.62446 3.25981C9.88086 3.51621 10.0249 3.86396 10.0249 4.22656V11.0625M10.0249 10.6068V8.78385C10.0249 8.42125 10.1689 8.0735 10.4253 7.81711C10.6817 7.56071 11.0295 7.41667 11.3921 7.41667C11.7547 7.41667 12.1024 7.56071 12.3588 7.81711C12.6152 8.0735 12.7593 8.42125 12.7593 8.78385V11.0625M12.7593 9.69531C12.7593 9.33271 12.9033 8.98496 13.1597 8.72856C13.4161 8.47217 13.7639 8.32812 14.1265 8.32812C14.4891 8.32812 14.8368 8.47217 15.0932 8.72856C15.3496 8.98496 15.4937 9.33271 15.4937 9.69531V11.0625" stroke="#090909" stroke-width="1.5625" stroke-linecap="round" stroke-linejoin="round"/>
<path d="M15.4945 10.6063C15.4945 10.2437 15.6385 9.89596 15.8949 9.63957C16.1513 9.38317 16.499 9.23913 16.8616 9.23913C17.2242 9.23913 17.572 9.38317 17.8284 9.63957C18.0848 9.89596 18.2288 10.2437 18.2288 10.6063V14.7079C18.2288 16.1583 17.6527 17.5493 16.6271 18.5749C15.6015 19.6005 14.2105 20.1766 12.7601 20.1766H10.9372H11.1267C10.2211 20.1768 9.32952 19.952 8.53217 19.5225C7.73482 19.0929 7.05664 18.4721 6.55851 17.7157L6.37987 17.4423C6.09549 17.0057 5.09744 15.2657 3.38481 12.2214C3.21022 11.9111 3.16359 11.5449 3.25482 11.2007C3.34606 10.8565 3.56797 10.5615 3.87336 10.3784C4.19864 10.1833 4.5798 10.1024 4.95631 10.1486C5.33283 10.1949 5.68309 10.3656 5.95148 10.6337L7.29133 11.9735M2.31567 5.22324C3.01514 4.71188 3.76672 4.27591 4.55786 3.92259M12.7601 3.27637C13.947 3.59488 15.0793 4.09018 16.1188 4.74564" stroke="#090909" stroke-width="1.5625" stroke-linecap="round" stroke-linejoin="round"/>
</svg>
